<svg width="1584" height="396" viewBox="0 0 1584 396" fill="none" xmlns="http://www.w3.org/2000/svg">
<g clip-path="url(#clip0_18_2)">
<rect width="1584" height="396" fill="black"/>
<g opacity="0.2">
<path d="M857.194 449.248C866.023 446.097 870.334 429.61 870.334 429.61C870.334 429.61 876.42 441.335 893.601 437.544C898.545 436.483 903.148 434.21 906.995 430.928C910.842 427.647 913.813 423.46 915.641 418.745C915.641 418.745 917.135 426.539 927.529 428.169C937.922 429.8 939.185 425.157 939.382 423.139L940.156 415.083C940.156 415.083 953.57 414.288 956.575 407.201C971.192 403.185 1001.42 391.253 983.854 364.275C983.854 364.275 1005.56 356.387 998.933 344.338C998.933 344.338 1052.57 328.374 1021.35 297.77C1021.35 297.77 1035.23 286.606 1031.08 275.066C1031.08 275.066 1056.11 255.745 1046.77 237.987C1046.77 237.987 1061.65 220.162 1049.13 211.711C1049.13 211.711 1060.28 202.229 1053.67 194.841L1057.13 186.008C1057.13 186.008 1067.76 188.91 1062.75 181.905C1057.74 174.901 1050.22 167.419 1044.07 188.584C1044.07 188.584 1027.26 194.826 1020.93 207.404C1019.14 210.989 1018.5 215.033 1019.07 218.996C1019.65 222.959 1021.42 226.651 1024.15 229.579C1024.15 229.579 1002.69 242.698 1017.31 260.591C1017.31 260.591 1007.4 261.283 994.22 274.7C981.042 288.117 997.267 292.967 997.267 292.967C997.267 292.967 983.602 294.674 979.067 311.433C979.067 311.433 961.205 301.493 948.001 319.683C936.598 335.301 950.123 346.136 954.113 348.84C952.182 348 947.543 347.767 940.385 357.94C934.893 365.719 941.456 367.993 941.456 367.993L942.659 374.549C938.092 372.301 926.713 368.24 918.719 379.05C908.515 392.804 912.576 395.302 912.576 395.302C912.576 395.302 900.729 389.869 893.448 397.786C893.448 397.786 879.16 384.217 868.689 396.031C868.689 396.031 861.379 383.162 849.455 393.497L849.01 443.286C849.01 443.286 848.349 452.384 857.194 449.248Z" fill="#F5F5F5"/>
<path d="M701.656 364.18C701.656 364.18 716.322 359.788 712.265 349.96C708.207 340.132 697.67 339.333 694.834 344.013C694.834 344.013 688.927 338.068 682.903 340.251L676.864 342.45C677.323 339.98 676.964 337.429 675.841 335.181C674.719 332.934 672.894 331.114 670.645 329.997C670.645 329.997 677.805 312.011 666.53 305.03C663.546 303.039 659.93 302.226 656.381 302.748C652.832 303.271 649.603 305.093 647.32 307.86C647.32 307.86 640.152 294.098 629.683 296.228C623.162 297.555 612.91 308.456 606.131 316.45C603.162 319.859 601.137 323.985 600.258 328.419C599.379 332.853 599.675 337.44 601.118 341.724C604.216 350.383 610.841 353.56 620.965 355.995L659.485 382.05L669.199 395.96L683.019 371.496L702.093 376.687L701.656 364.18Z" fill="#EBEBEB"/>
<path d="M701.656 364.18C701.656 364.18 716.322 359.788 712.265 349.96C708.207 340.132 697.67 339.333 694.834 344.013C694.834 344.013 688.927 338.068 682.903 340.251L676.864 342.45C677.323 339.98 676.964 337.429 675.841 335.181C674.719 332.934 672.894 331.114 670.645 329.997C670.645 329.997 677.805 312.011 666.53 305.03C663.546 303.039 659.93 302.226 656.381 302.748C652.832 303.271 649.603 305.093 647.32 307.86C647.32 307.86 640.152 294.098 629.683 296.228C623.162 297.555 612.91 308.456 606.131 316.45C603.162 319.859 601.137 323.985 600.258 328.419C599.379 332.853 599.675 337.44 601.118 341.724C604.216 350.383 610.841 353.56 620.965 355.995L659.485 382.05L669.199 395.96L683.019 371.496L702.093 376.687L701.656 364.18Z" fill="#EBEBEB"/>
<path d="M947.882 319.843C943.126 326.349 942.725 332.039 944.192 336.699C949.035 334.241 954.606 333.627 959.868 334.971C960.36 332.633 961.338 330.426 962.739 328.491C964.14 326.556 965.932 324.937 967.999 323.74C970.065 322.543 972.361 321.793 974.736 321.541C977.112 321.288 979.513 321.537 981.786 322.273C982.722 316.236 985.392 310.6 989.472 306.053C993.552 301.506 998.866 298.242 1004.77 296.659C1001.7 295.285 999.289 292.771 998.044 289.65C997.487 288.085 997.417 286.388 997.841 284.782C998.266 283.177 999.166 281.736 1000.42 280.651C1001.08 280.155 1001.83 279.798 1002.63 279.602C1003.43 279.405 1004.26 279.374 1005.07 279.508C1005.88 279.643 1006.65 279.941 1007.35 280.385C1008.04 280.829 1008.63 281.409 1009.09 282.09C1010.88 277.09 1013.67 272.509 1017.29 268.632C1020.92 264.754 1025.3 261.663 1030.17 259.55C1027.46 258.223 1025.21 256.112 1023.72 253.491C1022.22 250.87 1021.55 247.86 1021.79 244.853C1022.03 241.846 1023.17 238.98 1025.06 236.63C1026.95 234.279 1029.51 232.551 1032.39 231.672C1029.63 228.859 1027.76 225.293 1027.01 221.421C1026.26 217.549 1026.67 213.542 1028.19 209.902C1029.7 206.261 1032.26 203.149 1035.54 200.953C1038.81 198.758 1042.66 197.577 1046.61 197.559C1046.45 190.611 1047.8 183.712 1050.57 177.341L1048.15 178.966C1046.36 182.04 1044.99 185.344 1044.1 188.786C1044.1 188.786 1027.28 195.028 1020.95 207.606C1019.17 211.191 1018.52 215.235 1019.09 219.198C1019.67 223.161 1021.44 226.853 1024.18 229.781C1024.18 229.781 1002.71 242.9 1017.33 260.793C1017.33 260.793 1007.42 261.485 994.242 274.902C981.064 288.319 997.289 293.169 997.289 293.169C997.289 293.169 983.624 294.876 979.089 311.635C978.932 311.609 961.118 301.683 947.882 319.843Z" fill="#EBEBEB"/>
<path d="M854.21 396.253C853.328 395.066 841.317 383.806 827.722 385.277C814.127 386.748 805.449 397.644 805.449 397.644C805.449 397.644 802.148 382.489 788.971 395.906L774.497 428.235C774.497 428.235 770.375 444.778 783.97 440.983C783.97 440.983 794.938 459.233 805.684 454.677C816.431 450.12 824.703 438.303 824.703 438.303C824.703 438.303 825.281 454.563 833.639 452.691C841.996 450.82 851.048 441.299 851.048 441.299L854.21 396.253Z" fill="#F5F5F5"/>
<path d="M787.325 393.342C787.325 393.342 794.67 387.325 787.181 377.94C779.693 368.555 763.241 367.628 758.17 372.632L756.711 372.837C756.711 372.837 744.117 360.007 732.503 372.623L725.985 382.822C725.985 382.822 715.079 380.772 711.633 390.977L729.182 413.418L733.426 405.135C733.426 405.135 736.704 417.765 746.864 415.708C746.864 415.708 750.406 430.122 760.367 432.344C770.328 434.566 773.096 432.96 773.096 432.96L792.669 402.019L787.325 393.342Z" fill="#F5F5F5"/>
<path d="M735.281 412.994C735.281 412.994 745.543 407.02 739.318 395.347C739.318 395.347 746.093 387.229 737.377 378.446C728.661 369.664 723.89 371.057 723.89 371.057C723.89 371.057 725.364 359.25 714.803 354.958C704.242 350.667 696.192 362.601 694.717 366.955C693.704 370.353 693.674 373.969 694.631 377.383C695.587 380.798 697.491 383.872 700.122 386.249C704.116 389.642 708.519 392.521 713.228 394.821C713.228 394.821 704.752 393.173 703.307 403.045C701.861 412.918 708.494 419.571 715.189 420.188C718.973 420.498 723.587 414.432 723.587 414.432C723.587 414.432 731.116 417.126 735.281 412.994Z" fill="#F5F5F5"/>
<path d="M689.282 374.124C689.282 374.124 708.857 395.14 694.323 408.072C694.323 408.072 684.648 417.13 676.617 404.614C674.818 405.508 672.746 405.68 670.824 405.095C668.903 404.511 667.277 403.213 666.282 401.469C666.282 401.469 661.493 409.302 650.812 402.816C640.13 396.33 641.216 386.422 641.216 386.422C641.216 386.422 636.979 391.212 627.459 388.647C624.512 387.83 621.962 385.971 620.282 383.415C618.707 381.189 617.692 378.615 617.324 375.913C616.956 373.211 617.246 370.46 618.169 367.893L621.667 358.31C621.667 358.31 610.9 332.616 640.413 327.35C661.432 323.618 663.107 346.032 663.107 346.032C663.107 346.032 665.541 329.39 680.191 336.116C694.841 342.843 700.913 362.037 689.282 374.124Z" fill="#F5F5F5"/>
<path d="M616.608 289.526C616.608 289.526 650.59 272.025 625.465 241.777C625.465 241.777 631.902 222.24 606.093 221.253L573.169 213.644C573.169 213.644 563.567 221.624 567.309 237.372C569.314 246.514 574.149 254.791 581.125 261.03C581.125 261.03 565.739 272.744 576.247 289.839C586.755 306.935 599.746 304.658 599.746 304.658C600.463 310.847 602.409 316.831 605.47 322.257C608.531 327.684 612.646 332.444 617.572 336.258C634.027 348.414 647.888 347.916 642.009 325.644C636.129 303.371 623.507 292.958 616.608 289.526Z" fill="#F5F5F5"/>
<path d="M603.242 228.756C603.242 228.756 593.632 245.749 582.362 232.92C571.093 220.092 574.194 213.064 574.194 213.064C574.194 213.064 565.626 207.286 566.643 199.97C566.643 199.97 556.169 195.036 555.394 173.855C554.619 152.674 578.254 143.724 578.254 143.724L594.428 156.792C598.543 160.008 601.246 164.698 601.963 169.871C602.418 172.449 601.92 175.104 600.561 177.341C600.561 177.341 613.523 190.424 614.693 198.79C616.54 211.951 605.082 222.27 605.082 222.27L603.242 228.756Z" fill="#F5F5F5"/>
<path d="M555.364 173.887C555.857 188.529 561.047 195.402 564.199 198.259C563.78 194.656 564.409 191.008 566.012 187.754C567.615 184.5 570.123 181.777 573.235 179.913C579.676 176.25 583.927 179.772 589.636 184.476C588.918 179.339 596.889 174.782 604.34 181.658C602.166 179.143 600.519 177.483 600.519 177.483C601.878 175.246 602.376 172.59 601.921 170.013C601.204 164.84 598.501 160.149 594.386 156.934L593.04 155.857C591.081 155.647 589.21 154.937 587.606 153.794C584.553 151.573 582.836 147.826 579.995 145.411L579.641 145.08C579.193 144.72 578.712 144.403 578.206 144.131L577.644 144.118C574.212 145.466 554.718 154.667 555.364 173.887Z" fill="#EBEBEB"/>
<path d="M699.995 11.2464L695.642 14.418C695.642 14.418 698.788 21.2512 692.279 21.9848C685.77 22.7184 685.433 19.2056 685.433 19.2056L680.137 23.095C680.137 23.095 687.171 29.1581 673.228 36.9406C659.284 44.7231 659.533 35.4522 659.533 35.4522L654.953 38.8342C654.953 38.8342 657.691 45.5876 649.293 51.3434C640.894 57.0993 638.804 50.5892 638.804 50.5892C638.804 50.5892 634.377 56.1959 632.118 52.0929C631.454 51.0816 631.008 49.9426 630.809 48.749C630.611 47.5553 630.664 46.3333 630.965 45.1614C630.965 45.1614 621.831 52.2207 619.656 43.6395C617.48 35.0583 625.574 29.531 625.574 29.531C625.574 29.531 627.152 12.481 639.56 19.2833C639.56 19.2833 645.893 8.21719 652.13 17.4881C655.313 11.155 660.34 5.93518 666.549 2.51667C676.108 -2.12433 676.846 5.44483 676.846 5.44483C676.846 5.44483 683.068 2.21035 683.535 8.68151C683.535 8.68151 687.632 6.68807 690.223 8.1758L696.628 4.81041C696.628 4.81041 707.162 -5.6174 709.743 2.9813C712.325 11.58 700.245 12.657 699.995 11.2464Z" fill="#F5F5F5"/>
<path d="M630.967 45.2235C630.666 46.3955 630.613 47.6175 630.811 48.8111C631.01 50.0048 631.456 51.1438 632.12 52.155C632.269 52.4509 632.468 52.7186 632.708 52.9461L645.972 42.5668C638.834 36.1953 641.304 31.2626 626.576 37.98C626.756 37.7868 627.329 30.7193 627.525 30.51C630.686 27.5812 636.251 27.0821 639.15 30.2748C639.227 28.4461 639.792 26.6713 640.786 25.1342C641.78 23.597 643.166 22.3534 644.802 21.532C646.437 20.7105 648.263 20.341 650.089 20.4618C651.915 20.5826 653.676 21.1893 655.19 22.219C654.858 19.9895 655.313 17.7142 656.477 15.7839C657.641 13.8537 659.441 12.3892 661.568 11.6422C663.694 10.8952 666.015 10.9124 668.13 11.6907C670.246 12.4691 672.024 13.96 673.159 15.9072C673.79 14.4915 674.757 13.2509 675.975 12.2926C677.193 11.3342 678.627 10.6871 680.151 10.407C681.676 10.1269 683.245 10.2224 684.725 10.6851C686.204 11.1479 687.548 11.964 688.641 13.0629C690.033 11.5317 691.699 10.275 693.553 9.35786C694.491 8.89904 695.521 8.66183 696.565 8.66457C697.609 8.6673 698.638 8.90992 699.573 9.37365C700.527 9.912 701.266 10.7628 701.666 11.7826C704.958 11.8434 711.902 9.67608 709.884 2.99201C707.227 -5.52618 696.769 4.82113 696.769 4.82113L690.364 8.18653C687.772 6.69879 683.676 8.69223 683.676 8.69223C683.088 2.34987 676.987 5.45555 676.987 5.45555C676.987 5.45555 676.248 -2.11364 666.69 2.52736C660.481 5.94587 655.454 11.1657 652.271 17.4988C646.033 8.22788 639.7 19.294 639.7 19.294C627.138 12.5281 625.574 29.5309 625.574 29.5309C625.574 29.5309 617.452 35.1527 619.641 43.6866C621.831 52.2205 630.967 45.2235 630.967 45.2235Z" fill="#EBEBEB"/>
<path d="M601.543 94.3506C605.851 92.7353 609.677 90.0502 612.661 86.548C615.645 83.0457 617.688 78.8417 618.599 74.3316C619.588 77.7913 628.215 76.9553 632.09 74.8757C633.977 73.7554 635.601 72.2414 636.851 70.4368C638.101 68.6322 638.947 66.5794 639.332 64.4183C639.641 62.6167 639.55 60.7692 639.065 59.0069C638.58 57.2445 637.713 55.6106 636.525 54.2211C640.789 52.4308 644.251 49.1415 646.256 44.9742C647.219 43.2088 647.7 41.2214 647.651 39.2113C647.603 37.2012 647.026 35.2391 645.98 33.5223C644.708 32.1139 643.016 31.1534 641.156 30.7834C639.295 30.4134 637.364 30.6536 635.65 31.4684C633.917 32.1296 632.378 33.2178 631.177 34.6321C629.977 36.0463 629.152 37.7409 628.781 39.5587C625.823 36.0093 619.629 35.8903 614.66 39.3009C609.691 42.7115 606.529 49.2892 607.429 54.2644C605.804 54.4206 604.228 54.9127 602.803 55.7096C601.378 56.5065 600.133 57.5907 599.149 58.8936C598.126 60.119 597.387 61.5559 596.986 63.1009C596.585 64.6459 596.532 66.2606 596.83 67.8287C590.827 67.3758 583.563 71.1755 579.115 77.0947C574.668 83.014 571.046 90.3088 575.821 106.178L574.451 115.97L601.543 94.3506Z" fill="#F5F5F5"/>
<path d="M590.955 38.2897C590.538 37.9193 590.261 37.4161 590.171 36.8651C590.082 36.3141 590.185 35.7491 590.464 35.2655C591.042 34.2858 591.87 33.4776 592.864 32.9237C596.564 30.5445 600.828 29.1902 605.222 28.9993C606.577 28.9382 608.24 29.2253 608.612 30.5694C608.985 31.9135 607.96 32.9771 606.976 33.8367C604.809 35.7014 602.271 37.0857 599.53 37.8982C596.789 38.7108 593.906 38.9332 591.073 38.5508" fill="#F5F5F5"/>
<path d="M660.231 84.4701C660.039 84.7345 659.791 84.9528 659.504 85.1093C659.217 85.2657 658.899 85.3565 658.573 85.3749C658.247 85.3934 657.92 85.339 657.618 85.2159C657.315 85.0927 657.043 84.9038 656.823 84.6628C656.351 84.174 655.998 83.5826 655.792 82.9349C655.586 82.2872 655.533 81.6007 655.637 80.9291C655.652 80.2019 655.907 79.5 656.361 78.9322C656.816 78.3643 657.445 77.9622 658.151 77.7882C658.91 77.8332 659.63 78.1421 660.186 78.6616C660.741 79.1811 661.098 79.8784 661.194 80.6329C661.379 82.1642 661.005 83.711 660.14 84.9878" fill="#F5F5F5"/>
<path d="M537.59 117.865C537.146 118.631 536.539 119.289 535.812 119.793C535.086 120.298 534.256 120.635 533.384 120.783C532.481 120.898 531.563 120.754 530.738 120.367C529.914 119.981 529.216 119.368 528.726 118.6C528.274 117.708 528.04 116.722 528.041 115.722C528.043 114.722 528.281 113.737 528.735 112.846C529.778 110.506 531.647 108.633 533.985 107.586C534.377 107.379 534.809 107.258 535.251 107.23C535.693 107.202 536.137 107.267 536.552 107.422C537.305 107.917 537.844 108.678 538.058 109.554C538.932 112.197 538.75 115.075 537.549 117.586" fill="#F5F5F5"/>
<path d="M552.303 215.921C547.95 216.769 543.304 213.542 541.458 209.191C539.784 204.819 539.699 199.998 541.218 195.57C541.86 193.335 543.164 190.842 545.437 190.735C546.486 190.865 547.484 191.265 548.333 191.894C549.182 192.524 549.854 193.363 550.283 194.33C553.914 200.376 555.03 207.605 553.393 214.465" fill="#F5F5F5"/>
<path d="M648.766 290.565C650.075 290.124 651.25 289.354 652.176 288.329C653.103 287.304 653.751 286.058 654.057 284.711C654.343 282.997 653.972 281.239 653.019 279.787C652.098 278.337 650.824 277.146 649.316 276.325C648.056 275.509 646.546 275.167 645.057 275.361C644.227 275.633 643.473 276.098 642.857 276.718C642.241 277.338 641.78 278.095 641.513 278.927C641.023 280.204 640.825 281.575 640.933 282.94C641.041 284.304 641.452 285.627 642.137 286.812C643.467 289.262 645.269 291.852 648.766 290.565Z" fill="#EBEBEB"/>
<path d="M559.535 157.873C559.535 157.873 548.487 166.462 555.615 173.458C562.743 180.453 570.728 174.945 573.251 169.278C574.471 166.681 575.071 163.836 575.004 160.967C574.937 158.098 574.206 155.284 572.866 152.746L570.235 148.235C570.235 148.235 578.541 149.452 582.037 145.842C582.037 145.842 582.689 160.119 593.825 158.793C602.74 157.745 604.808 150.627 604.489 144.385C604.489 144.385 613.465 141.432 614.454 129.563C615.442 117.694 608.625 112.045 608.625 112.045C608.625 112.045 616.19 109.794 608.326 101.327C600.463 92.8588 591.51 88.6224 585.323 99.3717L579.104 110.122C579.104 110.122 569.854 99.8454 561.169 107.264C558.668 109.49 556.824 112.359 555.838 115.559C554.851 118.759 554.76 122.168 555.573 125.416C555.573 125.416 542.375 140.05 549.46 149.027C556.545 158.005 559.535 157.873 559.535 157.873Z" fill="#F5F5F5"/>
<path d="M575.408 108.266C577.182 108.911 578.739 110.042 579.9 111.53C579.67 108.039 580.229 104.542 581.534 101.297C582.839 98.0516 584.858 95.1416 587.44 92.7823C589.236 90.9586 591.629 89.8428 594.18 89.6395C597.408 89.6401 600.005 91.767 602.618 93.8777C606.68 92.2746 610.27 89.6685 613.053 86.3028C615.835 82.937 617.72 78.9213 618.531 74.6302C617.976 74.8728 617.357 74.9288 616.768 74.7898C616.178 74.6508 615.649 74.3243 615.261 73.8594C614.873 73.3944 614.646 72.8161 614.615 72.2112C614.583 71.6063 614.748 71.0075 615.086 70.5046C613.057 73.6666 609.996 76.0286 606.423 77.1894C604.632 77.7125 602.715 77.6071 600.992 76.8908C599.269 76.1744 597.842 74.8901 596.95 73.2512C596.416 71.4679 596.021 69.6461 595.769 67.802C592.46 68.0213 589.241 68.9682 586.341 70.5753C583.441 72.1824 580.931 74.4099 578.991 77.0989C574.559 83.0332 570.922 90.313 575.697 106.182L575.408 108.266Z" fill="#EBEBEB"/>
<path d="M567.309 237.372C569.314 246.514 574.149 254.791 581.125 261.03C581.125 261.03 565.739 272.744 576.247 289.839C581.18 297.86 586.655 301.621 591.079 303.343C587.104 299.103 584.158 294.006 582.469 288.445C580.424 280.499 582.646 270.99 589.629 266.747C584.483 260.247 579.199 253.376 577.631 245.242C576.063 237.108 579.586 227.338 587.433 224.657C583.724 219.9 578.887 216.145 573.359 213.731C573.359 213.731 563.615 221.669 567.309 237.372Z" fill="#EBEBEB"/>
<g opacity="0.2">
<path d="M783.304 433.24C781.248 431.672 779.686 429.546 778.802 427.116C777.919 424.685 777.752 422.052 778.32 419.53C775.165 423.458 770.916 426.362 766.111 427.878C763.648 428.599 761.043 428.695 758.534 428.156C756.024 427.617 753.689 426.46 751.739 424.79C750.602 423.746 749.671 422.497 748.995 421.109C750.996 425.424 754.628 430.931 760.472 432.231C770.449 434.468 773.171 432.88 773.171 432.88L774.104 431.398C773.713 436.011 774.419 443.55 784.15 440.79C784.15 440.79 795.118 459.04 805.865 454.484C814.474 450.826 821.477 442.528 823.944 439.373C823.988 437.854 823.895 436.333 823.666 434.829C817.195 437.137 812.496 431.9 808.518 425.827C806.131 430.161 802.272 433.499 797.639 435.237C795.266 436.091 792.722 436.355 790.225 436.007C787.728 435.659 785.353 434.71 783.304 433.24Z" fill="#E0E0E0"/>
</g>
<g opacity="0.2">
<path d="M715.218 420.125C719.002 420.434 723.616 414.369 723.616 414.369C723.616 414.369 731.132 417.141 735.297 413.009C735.864 412.648 736.403 412.244 736.909 411.801C738.009 413.364 739.548 414.566 741.331 415.255C743.113 415.944 745.06 416.09 746.926 415.674C747.285 417.152 747.756 418.601 748.334 420.009C747.733 418.509 747.477 416.893 747.585 415.28C747.692 413.668 748.161 412.101 748.957 410.694C744.08 410.588 739.348 409.013 735.38 406.176C731.412 403.338 728.392 399.369 726.715 394.788C724.167 387.639 726.97 379.639 731.827 373.83C726.675 370.402 723.94 371.164 723.94 371.164C723.94 371.164 726.895 382.978 717.602 387.626C708.308 392.273 702.688 388.377 702.688 388.377C705.978 390.903 709.515 393.088 713.246 394.899C713.246 394.899 704.77 393.25 703.325 403.123C701.879 412.995 708.448 419.588 715.218 420.125Z" fill="#E0E0E0"/>
</g>
<g opacity="0.2">
<path d="M732.503 372.623L731.896 373.563C733.2 372.028 734.664 370.635 736.262 369.409C734.879 370.317 733.616 371.397 732.503 372.623Z" fill="#E0E0E0"/>
</g>
<path d="M802.727 408.043C804.585 405.262 806.802 402.739 809.32 400.539C810.558 399.448 812.004 398.62 813.57 398.103C815.137 397.587 816.792 397.394 818.435 397.534C820.13 397.755 821.718 398.488 822.985 399.635C824.252 400.783 825.14 402.289 825.528 403.954C829.443 402.93 833.57 403.057 837.416 404.318C841.261 405.58 844.661 407.924 847.208 411.068C845.959 408.01 845.552 404.674 846.029 401.406C846.506 398.137 847.849 395.056 849.92 392.483C845.059 388.904 836.797 384.348 827.832 385.32C814.223 386.807 805.56 397.687 805.56 397.687C805.56 397.687 802.259 382.532 789.082 395.949C800.605 394.563 802.727 408.043 802.727 408.043Z" fill="#EBEBEB"/>
<path d="M777.121 9.43106C788.163 21.5343 811.215 31.409 840.181 30.7618C864.691 30.2022 878.659 36.5623 888.176 37.1932C896.084 37.7068 915.614 43.022 921.974 44.8039C923.59 47.4316 927.66 58.0854 934.556 59.132C942.204 60.2469 953.198 58.879 964.274 70.1391C975.092 81.1583 983.718 92.3604 995.605 115.663C995.605 115.663 1004.05 152.008 1000.37 161.877C997.008 170.801 993.581 171.399 991.962 188.139C990.342 204.878 996.489 202.66 1001.95 214.67C1007.4 226.681 996.653 244.601 1002.3 245.502C1007.94 246.404 1007.11 231.899 1016.07 231.769C1025.03 231.639 1028.16 241.654 1029.43 253.524C1030.71 265.395 1017.32 270.165 1014.42 288.273C1013.5 294.084 1013.94 300.028 1015.68 305.645C1017.43 311.261 1020.45 316.4 1024.5 320.664C1027.18 323.74 1019.58 329.609 1019.18 335.361C1018.78 341.113 1023.22 336.114 1023.22 336.114C1045.02 318.274 1046.52 294.537 1047.36 279.305C1047.86 268.214 1045.81 257.156 1041.38 246.979C1039.13 241.316 1033.01 217.009 1038.09 211.443C1043.17 205.876 1047.42 212.408 1050.31 218.158C1053.2 223.908 1048.26 236.939 1048.62 244.427C1048.98 251.916 1052.62 255.676 1055.19 256.603C1057.76 257.53 1056.53 247.779 1058.32 236.928C1060.1 226.077 1072.03 223.197 1073.35 211.161C1074.68 199.125 1065.3 185.531 1060.32 174.081C1059.36 171.682 1058.91 169.113 1058.99 166.532C1059.04 153.528 1054.93 140.848 1047.26 130.344C1047.04 127.124 1046.99 121.278 1051.05 117.415C1056.45 112.29 1059.87 113.407 1062.71 116.664C1065.54 119.921 1066.94 128.559 1069.46 132.03C1071.98 135.501 1070.9 127.101 1070.67 117.441C1070.44 107.781 1075.34 80.9509 1063.64 66.1252C1051.95 51.2995 1050.72 53.1965 1044.13 43.7813C1037.83 34.8712 1032.49 6.95136 1005 -13.4399C1003.11 -15.8401 1001.12 -18.3306 999.319 -20.4998C993.143 -27.9328 987.072 -37.8331 981.906 -43.0546C976.741 -48.2761 970.041 -52.7288 962.174 -49.283C954.306 -45.8372 955.318 -51.8903 946.542 -57.3802C941.301 -60.65 932.175 -63.5397 925.628 -65.3465C923.175 -66.8857 920.725 -68.3313 918.374 -69.5933C913.38 -73.7013 908.181 -77.5546 902.798 -81.1385C900.188 -82.2203 897.091 -80.6503 893.288 -78.7447C889.485 -76.8391 889.836 -76.1491 885.672 -76.1494C881.509 -76.1496 880.239 -78.2121 878.292 -77.2265C876.344 -76.241 879.955 -75.0682 883.053 -72.4435C883.755 -71.8003 884.309 -71.013 884.679 -70.1356C885.048 -69.2582 885.224 -68.3114 885.194 -67.3598C885.164 -66.4083 884.928 -65.4744 884.504 -64.6222C884.08 -63.77 883.476 -63.0194 882.735 -62.4219C879.887 -60.4081 857.29 -71.1245 857.046 -71.896C856.801 -72.6674 855.38 -75.5044 859.192 -76.2252C861.083 -76.5527 862.953 -76.9905 864.793 -77.5364C864.793 -77.5364 862.047 -83.6034 857.89 -84.8046C855.072 -85.5986 848.723 -83.8101 844.867 -82.5576C843.972 -82.7354 843.052 -82.7467 842.153 -82.591C828.036 -80.4007 798.135 -77.8821 784.364 -68.2186C762.701 -53.019 757.213 -32.1418 767.077 -7.77363C769.938 -1.76811 773.298 3.98694 777.121 9.43106ZM1049.87 96.6994C1047.95 91.8834 1046.84 79.8046 1049.04 74.2572C1051.24 68.7099 1053.2 74.2575 1058.35 79.9474C1063.5 85.6372 1063.29 89.184 1063.09 96.1143C1062.89 103.045 1058.22 104.293 1057.32 105.321C1054.09 103.128 1051.5 100.13 1049.79 96.6242L1049.87 96.6994ZM1024.83 178.347C1025.73 185.225 1024.22 220.954 1015.37 219.832C1006.53 218.711 1005.02 175.755 1008.31 168.424L1008.46 168.263C1008.9 167.302 1009.58 166.47 1010.44 165.851C1011.29 165.232 1012.3 164.845 1013.35 164.73C1014.4 164.614 1015.46 164.773 1016.43 165.192C1017.4 165.61 1018.25 166.274 1018.89 167.117C1021.61 170.69 1024.34 174.964 1024.78 178.302L1024.83 178.347ZM964.986 29.6813C969.79 33.8702 972.074 42.9155 970.034 41.5808C965.206 38.6128 960.173 35.9942 954.972 33.745L943.046 23.1685C943.046 23.1685 960.088 25.4643 964.938 29.6361L964.986 29.6813Z" fill="#E0E0E0"/>
<path d="M1009.55 153.382C1009.55 153.382 1009.61 152.475 1009.65 150.883C1009.55 151.712 1009.52 152.547 1009.55 153.382Z" fill="white"/>
<path d="M855.5 9.14842C864.29 2.97394 864.223 25.0877 875.1 26.2655C908.78 29.9039 900.67 23.8614 900.67 23.8614C897.893 22.742 895.176 21.4802 892.528 20.081C888.13 17.7496 877.25 -0.658795 877.25 -0.658795C877.25 -0.658795 883.602 -4.22509 895.422 -4.21737C907.242 -4.20965 917.533 12.441 917.533 12.441C917.533 12.441 944.873 6.56233 960.247 14.4187C975.622 22.2751 979.416 35.8697 978.973 47.2522C978.529 58.6348 961.407 49.3559 961.407 49.3559C961.407 49.3559 968.428 53.6261 990.588 76.8477C1009.9 97.0774 1009.98 140.019 1009.73 150.803C1010.04 147.8 1011.23 144.955 1013.14 142.621C1015.06 140.286 1017.62 138.565 1020.5 137.669C1032.27 133.468 1042.15 161.625 1042.15 161.625C1042.15 161.625 1037.82 140.439 1039.18 127.887C1040.01 121.632 1040.23 115.311 1039.84 109.013C1039.84 109.013 1027.38 96.9105 1021.94 87.4565C1016.51 78.0026 1020.2 64.8579 1023.76 57.0194C1027.31 49.181 1038.05 54.9636 1038.05 54.9636C1036.18 52.4938 1034.14 50.1554 1031.95 47.9646C1028.65 44.7232 1025.75 42.4973 1016.43 26.999C1007.12 11.5007 986.104 -17.0145 977.08 -25.2093C968.057 -33.4041 958.835 -19.2156 947.267 -23.7851C935.699 -28.3546 928.037 -50.3019 913.353 -54.3143C898.669 -58.3268 881.968 -46.3037 880.423 -47.2653C870.26 -53.8509 859.135 -58.8161 847.446 -61.9831C846.078 -62.3269 842.822 -65.9442 843.083 -66.9977C843.344 -68.0513 848.827 -78.8861 851.026 -78.3987C853.226 -77.9113 847.11 -81.2453 841.72 -78.3195C836.329 -75.3936 832.116 -73.1779 832.208 -74.6001C832.208 -74.6001 809.168 -75.774 805.088 -71.8943C796.604 -69.6284 784.913 -66.2567 778.204 -60.8228C760.291 -38.9194 764.337 -28.0465 767.468 -14.2269C770.6 -0.40735 786.462 11.7676 786.462 11.7676C796.938 18.2103 809.089 21.4003 821.379 20.9341C833.668 20.4678 845.543 16.3662 855.5 9.14842Z" fill="#EBEBEB"/>
<path d="M1074.2 143.004C1075.06 146.034 1076.92 148.682 1079.49 150.514C1084.8 154.713 1088.36 160.742 1089.47 167.424C1090.26 174.196 1088.24 173.968 1088.24 173.968C1086.13 169.889 1083.12 166.343 1079.44 163.598C1074.13 160.144 1070.97 156.523 1070.99 150.051C1071 143.579 1074.2 143.004 1074.2 143.004Z" fill="#E0E0E0"/>
<path d="M941.54 66.4753C943.006 69.2646 945.372 71.4765 948.254 72.7518C954.344 75.7087 959.106 80.839 961.602 87.1321C963.83 93.5596 961.795 93.7996 961.795 93.7996C958.867 90.2629 955.173 87.4385 950.992 85.5399C945.069 83.291 941.23 80.4263 939.831 74.08C938.433 67.7337 941.54 66.4753 941.54 66.4753Z" fill="#E0E0E0"/>
<path d="M949.123 317.322C949.123 317.322 965.911 313.919 969.52 302.991C973.129 292.063 966.98 293.767 971.144 284.505C975.307 275.243 970.303 275.271 970.303 275.271C970.303 275.271 956.772 278.19 952.723 289.008C948.674 299.825 954.028 302.296 951.552 309.818L949.123 317.322Z" fill="#E0E0E0"/>
<path d="M998.442 280.639C998.442 280.639 1003.42 276.605 1003.76 272.243C1004.09 267.881 1004.67 262.653 1001.66 260.509C998.66 258.364 995.805 259.256 995.976 262.494C996.148 265.731 998.442 280.639 998.442 280.639Z" fill="#E0E0E0"/>
<path d="M984.1 14.7232C980.978 7.55127 976.33 1.14636 970.479 -4.04522C961.046 -11.4154 952.687 -17.933 947.394 -13.9812C942.1 -10.0295 941.598 -4.55485 935.625 -7.36341C929.652 -10.172 921.995 -14.3429 923.535 -16.7961C925.074 -19.2493 936.454 -23.9672 938.593 -23.4154C940.733 -22.8637 937.646 -25.629 932.069 -27.7648C926.493 -29.9006 916.619 -27.6971 910.246 -27.5295C903.874 -27.3619 894.43 -29.9757 893.059 -28.0896C891.688 -26.2034 903.549 -20.3339 907.828 -18.7782C911.668 -16.8989 915.229 -14.4944 918.407 -11.6337C918.407 -11.6337 917.97 -1.90421 920.745 -0.999595C923.52 -0.0949817 940.982 -2.47579 949.508 -3.52672C958.033 -4.57766 957.816 -5.47481 965.54 -0.214622C973.264 5.04557 984.1 14.7232 984.1 14.7232Z" fill="#F5F5F5"/>
<path d="M1043.53 166.834C1043.53 166.834 1049.31 173.75 1052.98 178.866C1056.64 183.982 1051.32 184.707 1051.68 193.162C1052.04 201.617 1058.4 214.829 1058.4 214.829C1058.4 214.829 1042.45 198.353 1042.07 196.121C1044.66 193.683 1046.5 190.545 1047.35 187.086C1047.98 182.371 1043.29 173.999 1042.26 170.744C1041.23 167.488 1043.53 166.834 1043.53 166.834Z" fill="#EBEBEB"/>
<path d="M848.939 43.082C848.939 43.082 858.246 39.3227 870.277 45.5919C882.308 51.8611 896.06 67.5844 898.285 69.3028C900.511 71.0212 909.788 77.4922 909.788 77.4922C909.788 77.4922 887.619 77.1621 876.83 69.7908C866.041 62.4195 848.939 43.082 848.939 43.082Z" fill="#E0E0E0"/>
<path d="M878.806 -39.2427C878.806 -39.2427 874.048 -45.7722 867.901 -45.8772C861.754 -45.9822 855.785 -47.7306 853.477 -51.9099C851.169 -56.0893 838.809 -70.2689 827.334 -73.9371C815.858 -77.6053 789.926 -67.8757 779.83 -57.4314C763.736 -40.7975 762.203 -35.8339 766.584 -18.735C770.964 -1.63596 780.363 9.38422 789.261 12.9052C798.158 16.4263 826.186 23.5606 836.272 16.9995C846.359 10.4383 852.338 5.52792 857.858 2.75366C863.378 -0.0205867 878.7 6.73044 878.974 4.21068C879.247 1.69091 875.906 -1.67399 871.797 -4.24897C867.687 -6.82396 853.302 -7.05729 851.764 -10.1242C850.226 -13.1912 849.081 -23.1325 855.547 -24.691C862.012 -26.2496 869.002 -28.9174 872.804 -28.0785C876.606 -27.2396 884.009 -23.6371 886.708 -23.5876C889.408 -23.5381 883.602 -31.1083 879.05 -32.4365C874.499 -33.7648 868.452 -35.5261 869.764 -36.8645C871.075 -38.2029 876.831 -40.4549 878.806 -39.2427Z" fill="#F5F5F5"/>
<path d="M914.96 25.9065C914.78 25.766 914.648 25.5728 914.582 25.3537C914.516 25.1347 914.52 24.9005 914.593 24.6839C914.667 24.4672 914.805 24.2787 914.991 24.1445C915.176 24.0103 915.398 23.937 915.627 23.9348C919.547 23.7351 923.475 23.78 927.389 24.0693C927.263 24.4946 939.025 28.3402 942.49 32.1532C945.956 35.9662 949.909 39.4508 950.729 41.5751C951.549 43.6994 931.769 29.5823 928.023 31.7823C925.27 33.4031 918.547 28.6862 914.96 25.9065Z" fill="#EBEBEB"/>
<path d="M1037.45 277.549C1038.63 278.153 1039.67 279.018 1040.48 280.079C1041.28 281.141 1041.84 282.371 1042.1 283.677C1042.64 287.807 1036.78 309.757 1036.78 309.757L1029.53 320.745L1030.99 304.915C1030.99 304.915 1023.72 303.881 1023.55 297.384C1023.38 290.887 1037.45 277.549 1037.45 277.549Z" fill="#EBEBEB"/>
<path d="M990.812 30.2313C995.019 35.5129 998.937 41.0186 1002.55 46.7242C1005.52 52.0975 1001.4 59.0815 1001.4 59.0815C1001.4 59.0815 1009.46 74.2168 1009.79 76.2172C1010.13 78.2175 1012.86 104.759 1012.86 104.759C1012.86 104.759 1007.79 81.9139 1005.05 76.9382C1002.31 71.9626 992.405 56.7022 992.405 56.7022C992.405 56.7022 999.976 45.8283 990.812 30.2313Z" fill="#F5F5F5"/>
<path d="M968.865 392.442C968.865 392.442 989.406 377.732 988.114 370.369C986.821 363.005 985.343 366.361 985.655 360.799C985.967 355.237 997.497 333.19 997.405 327.19C997.312 321.189 965.514 338.71 964.929 340.788C964.344 342.866 967.101 340.466 964.648 345.897C962.196 351.328 950.984 360.125 948.904 366.448C946.825 372.771 948.013 366.821 956.737 364.719C965.46 362.617 969.946 368.469 971.274 374.116C972.602 379.763 968.223 381.22 967.474 386.766C966.725 392.311 968.865 392.442 968.865 392.442Z" fill="#E0E0E0"/>
<path d="M922.927 409.113C922.927 409.113 941.58 405.039 942.06 389.196C942.06 389.196 935.815 393.133 930.367 392.022C928.747 398.056 926.239 403.816 922.927 409.113Z" fill="#E0E0E0"/>
<path d="M800.802 6.46673C806.201 5.66132 813.264 5.17419 818.245 1.65401L828.711 -5.6684C831.766 -7.46487 835.261 -8.37612 838.805 -8.30027C838.617 -10.3806 837.778 -12.3485 836.406 -13.9236C835.034 -15.4987 833.2 -16.6005 831.165 -17.0718C823.701 -19.2533 816.69 -15.8207 813.268 -17.8731C811.062 -19.4679 809.509 -21.8093 808.899 -24.4625C808.899 -24.4625 814.393 -33.5667 818.359 -31.0961C822.325 -28.6254 827.92 -33.3514 827.92 -33.3514L829.14 -41.1112L840.302 -42.1417C840.76 -44.73 828.57 -45.0839 827.177 -47.0798C825.785 -49.0757 820.157 -59.2248 816.768 -59.8281C813.38 -60.4314 799.651 -62.0122 789.032 -55.9789C778.414 -49.9456 771.991 -40.1707 770.52 -34.7571C768.005 -25.6127 772.605 -14.0411 775.101 -9.83691C780.843 -0.00350827 795.418 7.2872 800.802 6.46673ZM816.441 -12.1011C819.516 -13.8419 826.159 -11.0714 826.159 -11.0714L814.721 -6.19573L809.863 -9.22891C812.119 -9.95852 814.301 -10.8986 816.381 -12.0367L816.441 -12.1011Z" fill="#FAFAFA"/>
<path d="M1072.25 237.769C1072.83 238.311 1073.62 238.409 1073.91 237.931C1074.01 237.574 1074.01 237.197 1073.9 236.841C1073.8 236.486 1073.59 236.168 1073.31 235.924C1072.72 235.367 1071.95 235.284 1071.67 235.777C1071.39 236.27 1071.67 237.196 1072.25 237.769Z" fill="#E0E0E0"/>
<path d="M937.355 325.811C937.95 326.368 938.733 326.466 939.029 325.988C939.143 325.631 939.148 325.248 939.044 324.888C938.941 324.528 938.733 324.207 938.446 323.965C937.867 323.423 937.085 323.356 936.789 323.834C936.691 324.183 936.692 324.553 936.792 324.902C936.892 325.251 937.087 325.566 937.355 325.811Z" fill="#E0E0E0"/>
<path d="M988.78 218.715C989.376 219.272 990.159 219.371 990.439 218.878C990.544 218.521 990.544 218.142 990.438 217.786C990.332 217.429 990.125 217.111 989.841 216.871C989.245 216.314 988.463 216.247 988.184 216.74C988.087 217.092 988.092 217.464 988.197 217.813C988.303 218.163 988.505 218.476 988.78 218.715Z" fill="#E0E0E0"/>
<path d="M833.307 44.7308C833.903 45.2877 834.67 45.3711 834.966 44.8933C835.066 44.5365 835.063 44.1586 834.957 43.8034C834.851 43.4481 834.647 43.1302 834.368 42.8863C833.772 42.3294 833.005 42.246 832.726 42.7388C832.621 43.0917 832.621 43.4671 832.724 43.8203C832.827 44.1735 833.029 44.4896 833.307 44.7308Z" fill="#E0E0E0"/>
<path d="M1023.09 352.32C1023.69 352.877 1024.47 352.975 1024.77 352.497C1024.87 352.14 1024.87 351.759 1024.77 351.401C1024.66 351.043 1024.46 350.721 1024.18 350.474C1023.6 349.932 1022.82 349.865 1022.53 350.343C1022.43 350.692 1022.43 351.062 1022.53 351.41C1022.63 351.759 1022.82 352.073 1023.09 352.32Z" fill="#E0E0E0"/>
<path d="M619.528 -254.457C604.371 -245.183 602.851 -212.962 602.851 -212.962C602.851 -212.962 586.862 -232.135 556.645 -218.596C547.909 -214.696 540.278 -208.69 534.434 -201.115C528.59 -193.541 524.717 -184.635 523.16 -175.196C523.16 -175.196 517.363 -189.004 497.453 -187.975C477.544 -186.947 477.085 -177.871 477.509 -174.065L479.192 -158.825C479.192 -158.825 454.654 -152.136 451.86 -137.852C426.34 -124.69 375.024 -90.8097 418.077 -47.7233C418.077 -47.7233 380.93 -24.6426 397.905 -4.91106C397.905 -4.91106 304.827 45.5937 374.529 90.06C374.529 90.06 353.245 116.053 365.419 135.853C365.419 135.853 326.549 181.399 350.83 210.646C350.83 210.646 330.165 249.468 356.661 260.209C356.661 260.209 339.716 282.142 354.93 293.107L351.873 310.706C351.873 310.706 331.137 309.423 343.035 320.546C354.933 331.669 371.888 342.482 375.085 300.756C375.085 300.756 403.806 282.621 410.612 256.881C417.417 231.141 396 217.001 396 217.001C396 217.001 430.641 184.337 396.597 156.884C396.597 156.884 414.668 151.754 433.853 121.777C453.038 91.8001 421.092 89.1482 421.092 89.1482C421.092 89.1482 445.851 80.7055 447.615 47.8687C447.615 47.8687 484.518 59.2577 501.957 20.4982C516.973 -12.8937 487.675 -27.6729 479.262 -31.1323C483.172 -30.3438 491.843 -31.6803 501.141 -53.3406C508.257 -69.8596 495.17 -71.3841 495.17 -71.3841L490.34 -82.8387C499.684 -80.4398 522.319 -77.381 532.865 -100.409C546.451 -129.948 537.979 -132.89 537.979 -132.89C537.979 -132.89 562.004 -127.446 572.409 -144.933C572.409 -144.933 604.176 -125.372 618.974 -151.334C618.974 -151.334 637.562 -130.456 655.555 -154.155L636.867 -246.604C636.867 -246.604 634.574 -263.773 619.528 -254.457Z" fill="#EBEBEB"/>
<g opacity="0.2">
<path d="M501.941 20.4831C508.209 6.54995 506.791 -4.06828 502.263 -12.1337C494.26 -5.69637 484.193 -2.38221 473.931 -2.80673C474.906 15.514 456.393 32.089 438.315 29.1575C438.941 40.7025 436.198 52.1804 430.419 62.1946C424.641 72.2089 416.076 80.3275 405.767 85.5627C411.989 86.9118 417.439 90.6329 420.961 95.9357C422.655 98.6082 423.493 101.734 423.363 104.896C423.232 108.057 422.14 111.104 420.231 113.628C416.134 118.397 407.722 119.101 403.616 114.327C402.261 124.28 398.873 133.848 393.663 142.436C388.452 151.024 381.531 158.448 373.329 164.247C378.873 165.633 383.87 168.659 387.667 172.928C391.464 177.198 393.886 182.514 394.616 188.181C395.345 193.848 394.349 199.604 391.757 204.696C389.164 209.789 385.097 213.981 380.085 216.726C386.305 220.856 391.169 226.729 394.069 233.609C396.969 240.488 397.777 248.071 396.392 255.407C395.006 262.744 391.489 269.509 386.279 274.858C381.069 280.206 374.399 283.9 367.101 285.478C370.092 298.281 370.268 311.581 367.617 324.459L371.491 320.478C373.579 314.076 374.787 307.42 375.082 300.693C375.082 300.693 403.803 282.559 410.609 256.819C417.415 231.079 396 217.001 396 217.001C396 217.001 430.641 184.337 396.597 156.884C396.597 156.884 414.668 151.754 433.853 121.777C453.038 91.8001 421.091 89.1481 421.091 89.1481C421.091 89.1481 445.85 80.7055 447.615 47.8687C447.599 47.8536 484.502 59.2427 501.941 20.4831Z" fill="black"/>
</g>
<path d="M1127.25 -52.545C1127.25 -52.545 1071.13 -6.9173 1129.46 39.3506C1129.46 39.3506 1125.18 78.0416 1173.37 69.8398L1237.3 71.1038C1237.3 71.1038 1251.99 52.5523 1238.93 24.8613C1225.86 -2.82979 1204.36 -13.4895 1204.36 -13.4895C1204.36 -13.4895 1228.3 -41.2248 1202.14 -68.7872C1175.98 -96.3495 1152.84 -87.0569 1152.84 -87.0569C1152.84 -87.0569 1142.73 -122.55 1107.45 -138.547C1072.17 -154.544 1046.79 -148.311 1066.36 -109.346C1085.93 -70.3816 1113.1 -56.2637 1127.25 -52.545Z" fill="#EBEBEB"/>
<path d="M1175.67 54.7926C1175.67 54.7926 1186.85 19.5962 1212.77 38.9335C1238.68 58.2708 1235.65 72.5471 1235.65 72.5471C1235.65 72.5471 1253.78 79.9052 1254.8 93.7961C1254.8 93.7961 1276.24 98.9066 1285.73 137.805C1295.23 176.703 1255.15 202.533 1255.15 202.533L1220.07 184.643C1211.21 180.252 1204.41 172.575 1201.12 163.247C1199.28 158.648 1199.17 153.538 1200.81 148.864C1200.81 148.864 1171.72 129.665 1166.29 114.629C1157.73 90.9652 1174.91 67.3865 1174.91 67.3865L1175.67 54.7926Z" fill="#EBEBEB"/>
<g opacity="0.1">
<path d="M1285.76 137.71C1279.13 110.816 1266.83 100.097 1259.88 96.0422C1262.06 102.55 1262.32 109.548 1260.62 116.199C1258.93 122.85 1255.35 128.87 1250.32 133.539C1239.89 142.856 1230.55 137.962 1218.13 131.503C1221.56 140.744 1208.5 152.254 1192.13 142.498C1197.12 146.322 1200.84 148.77 1200.84 148.77C1199.2 153.444 1199.31 158.554 1201.15 163.152C1204.44 172.481 1211.24 180.158 1220.1 184.548L1223 186.025C1226.7 185.692 1230.43 186.307 1233.82 187.813C1240.28 190.839 1245 197.027 1251.19 200.405L1251.99 200.815C1252.96 201.319 1253.97 201.724 1255.02 202.023L1256.06 201.816C1261.89 197.675 1294.47 173.095 1285.76 137.71Z" fill="black"/>
</g>
<path d="M1061.11 495.483L1067.88 487.879C1067.88 487.879 1059.38 476.486 1071.14 472.613C1082.91 468.739 1084.9 475.034 1084.9 475.034L1093.19 465.742C1093.19 465.742 1077.76 457.342 1100.49 437.382C1123.22 417.421 1126.43 434.747 1126.43 434.747L1133.58 426.741C1133.58 426.741 1125.83 415.275 1139.02 401.265C1152.21 387.255 1158.83 398.478 1158.83 398.478C1158.83 398.478 1164.81 386.363 1170.59 393.061C1176.36 399.759 1175.43 405.435 1175.43 405.435C1175.43 405.435 1189.61 388.788 1197 403.758C1204.4 418.729 1191.52 432.214 1191.52 432.214C1191.52 432.214 1195.3 464.412 1169.67 456.682C1169.67 456.682 1162.28 479.698 1147.06 464.959C1147.06 464.959 1142.15 485.957 1126.26 498.312C1110.36 510.666 1106.03 496.934 1106.03 496.934C1106.03 496.934 1095.83 505.261 1092.28 493.763C1092.28 493.763 1085.47 499.045 1080.11 497.291L1069.54 506.052C1069.54 506.052 1054.22 529.537 1046.05 514.655C1037.88 499.773 1059.93 492.934 1061.11 495.483Z" fill="#EBEBEB"/>
<path opacity="0.1" d="M1175.43 405.435C1175.43 405.435 1176.38 399.743 1170.59 393.061C1170.19 392.572 1169.73 392.141 1169.22 391.782L1148.82 416.123C1164.54 425.122 1161.87 435.207 1186.52 417.007C1186.17 417.377 1188.06 430.818 1187.76 431.233C1183.04 437.894 1172.95 441.009 1166.33 436.242C1166.91 439.666 1166.56 443.182 1165.32 446.426C1164.08 449.669 1161.99 452.521 1159.28 454.684C1156.56 456.848 1153.32 458.245 1149.88 458.729C1146.44 459.214 1142.93 458.769 1139.73 457.44C1141.21 461.432 1141.27 465.817 1139.87 469.843C1138.48 473.868 1135.73 477.283 1132.09 479.501C1128.46 481.719 1124.16 482.602 1119.94 481.997C1115.73 481.393 1111.85 479.339 1108.98 476.189C1108.39 479.081 1107.09 481.782 1105.21 484.058C1103.33 486.334 1100.92 488.114 1098.19 489.242C1095.46 490.371 1092.5 490.814 1089.56 490.533C1086.62 490.252 1083.8 489.255 1081.33 487.629C1079.37 491.017 1076.79 494.007 1073.72 496.446C1072.18 497.649 1070.39 498.488 1068.48 498.9C1066.56 499.313 1064.58 499.289 1062.68 498.829C1060.72 498.211 1059.02 496.935 1057.88 495.217C1051.73 496.406 1039.75 503.125 1046.11 514.715C1054.29 529.597 1069.67 506.172 1069.67 506.172L1080.24 497.412C1085.6 499.165 1092.41 493.883 1092.41 493.883C1095.96 505.381 1106.16 497.054 1106.16 497.054C1106.16 497.054 1110.51 510.802 1126.39 498.432C1142.26 486.062 1147.19 465.079 1147.19 465.079C1162.4 479.818 1169.8 456.802 1169.8 456.802C1195.43 464.532 1191.65 432.334 1191.65 432.334C1191.65 432.334 1204.48 418.773 1197.13 403.879C1189.79 388.985 1175.43 405.435 1175.43 405.435Z" fill="black"/>
<path d="M1227.25 298.919C1201.43 310.984 1198.97 332.82 1197.39 338.767C1195.1 332.342 1178.88 334.915 1172 339.169C1168.57 341.507 1165.67 344.558 1163.52 348.116C1161.38 351.673 1160.02 355.652 1159.55 359.782C1159.18 363.214 1159.56 366.685 1160.68 369.951C1161.8 373.217 1163.62 376.198 1166.02 378.682C1158.18 382.574 1152.03 389.205 1148.74 397.32C1145.61 405.316 1146.28 413.901 1150.66 418.931C1155.04 423.961 1162.98 425.112 1170.39 421.573C1176.45 418.671 1182.29 411.91 1182.42 405.481C1188.48 411.904 1200.14 411.309 1209.09 404.287C1218.04 397.265 1223.31 384.395 1220.99 375.164C1224.04 374.684 1226.96 373.574 1229.56 371.905C1232.16 370.237 1234.38 368.046 1236.09 365.471C1237.88 363.051 1239.11 360.266 1239.71 357.313C1240.3 354.36 1240.23 351.314 1239.5 348.391C1250.9 348.631 1264.14 340.498 1271.95 328.914C1279.77 317.33 1285.63 303.021 1274.74 273.588L1276.15 254.938L1227.25 298.919Z" fill="#EBEBEB"/>
<path d="M1154.18 245.476C1155.13 245.039 1156.21 244.944 1157.23 245.205C1158.25 245.465 1159.15 246.067 1159.78 246.909C1161.04 248.655 1161.82 250.706 1162.03 252.852C1163.38 261.059 1162.53 269.474 1159.56 277.245C1158.62 279.647 1156.87 282.326 1154.28 281.961C1151.7 281.595 1150.55 278.983 1149.83 276.653C1148.22 271.487 1147.73 266.038 1148.38 260.668C1149.03 255.297 1150.82 250.125 1153.62 245.494" fill="#EBEBEB"/>
<path d="M1126.41 344.244C1126.69 343.701 1127.07 343.222 1127.55 342.837C1128.02 342.453 1128.57 342.17 1129.16 342.008C1129.74 341.846 1130.36 341.808 1130.96 341.896C1131.57 341.984 1132.15 342.197 1132.66 342.52C1133.73 343.235 1134.62 344.189 1135.26 345.308C1135.89 346.426 1136.26 347.677 1136.33 348.962C1136.58 351.76 1135.48 354.932 1132.97 355.78C1131.55 356.019 1130.09 355.74 1128.85 354.995C1127.62 354.25 1126.69 353.088 1126.24 351.718C1125.37 348.972 1125.52 346.007 1126.66 343.362" fill="#EBEBEB"/>
<path d="M1340.53 234.559C1341.04 232.969 1341.9 231.512 1343.04 230.29C1344.19 229.069 1345.58 228.113 1347.13 227.491C1348.76 226.925 1350.51 226.832 1352.18 227.223C1353.86 227.614 1355.39 228.472 1356.59 229.699C1357.76 231.173 1358.56 232.899 1358.93 234.738C1359.31 236.578 1359.25 238.48 1358.76 240.292C1357.78 245.043 1355.04 249.25 1351.09 252.073C1350.45 252.621 1349.7 253.023 1348.89 253.249C1348.08 253.476 1347.23 253.522 1346.4 253.385C1344.81 252.769 1343.51 251.561 1342.79 250.014C1340.14 245.468 1339.36 240.074 1340.6 234.962" fill="#EBEBEB"/>
<path d="M1275.06 58.6996C1282.77 55.4148 1292.56 59.7325 1297.74 66.9337C1302.93 74.135 1304.19 83.4329 1303.51 92.0633C1303.18 96.4563 1301.71 101.574 1297.54 102.681C1293.82 103.664 1289.96 100.846 1287.21 97.8824C1278.1 88.119 1273.21 75.1541 1273.6 61.8048" fill="#EBEBEB"/>
<path d="M1284.26 169.072C1284.26 169.072 1301.32 148.819 1285.48 138.717C1269.64 128.616 1256.93 141.83 1254.44 153.328C1253.22 158.599 1253.23 164.084 1254.48 169.35C1255.73 174.616 1258.18 179.521 1261.64 183.68L1268.28 191.004C1268.28 191.004 1252.42 191.99 1247.33 200.02C1247.33 200.02 1240.54 173.88 1220.42 180.654C1204.35 186.091 1203.3 200.067 1206.32 211.489C1206.32 211.489 1190.85 220.477 1193.77 242.631C1196.68 264.785 1211.25 272.98 1211.25 272.98C1211.25 272.98 1198.13 280.111 1215.99 292.733C1233.85 305.356 1252.07 309.748 1259.39 287.39L1266.69 265.033C1266.69 265.033 1287.82 280.477 1301.01 263.333C1314.2 246.188 1304.28 227.56 1304.28 227.56C1304.28 227.56 1323.06 195.305 1306.43 181.441C1289.79 167.576 1284.26 169.072 1284.26 169.072Z" fill="#EBEBEB"/>
<g opacity="0.1">
<path d="M1274.98 269.588C1271.55 268.57 1268.48 266.616 1266.1 263.946C1266.95 270.518 1266.3 277.197 1264.21 283.484C1262.12 289.772 1258.64 295.508 1254.02 300.264C1250.86 303.924 1246.47 306.319 1241.68 307.01C1235.61 307.37 1230.44 303.709 1225.23 300.017C1204.35 310.668 1198.9 327.692 1197.48 338.219C1198.5 337.692 1199.67 337.511 1200.8 337.704C1201.94 337.897 1202.98 338.452 1203.77 339.287C1204.56 340.122 1205.06 341.191 1205.19 342.334C1205.32 343.476 1205.08 344.631 1204.5 345.623C1208.24 339.65 1213.33 334.115 1220.05 331.955C1226.78 329.795 1235.13 331.962 1238.32 338.232C1239.91 341.345 1240.13 345.08 1241.19 348.365C1252.19 347.73 1264.48 339.972 1271.86 328.762C1279.52 317.042 1285.53 302.868 1274.64 273.436L1274.98 269.588Z" fill="black"/>
</g>
<g opacity="0.1">
<path d="M1238.88 24.8162C1225.83 -2.85979 1204.31 -13.5345 1204.31 -13.5345C1204.31 -13.5345 1228.25 -41.2699 1202.09 -68.8322C1189.84 -81.7679 1178.25 -86.5705 1169.4 -88.0506C1178.4 -81.7339 1185.82 -73.4377 1191.11 -63.8004C1198.09 -50.0012 1197.61 -31.382 1186.3 -20.8346C1198.38 -10.809 1210.84 -0.156802 1216.85 14.2678C1222.85 28.6924 1220.23 48.1788 1206.8 56.1626C1215.51 63.5262 1225.93 68.5901 1237.11 70.8921L1237.29 70.8858C1237.29 70.8858 1251.94 52.5073 1238.88 24.8162Z" fill="black"/>
</g>
<path d="M939.384 528.863C914.15 510.672 867.667 501.461 814.29 513.954C769.098 524.535 740.769 518.175 722.908 520.756C708.057 522.893 669.809 520.656 657.384 519.842C653.343 515.58 641.662 497.48 628.478 498.188C613.972 498.988 594.06 505.958 569.162 489.409C544.966 473.335 524.495 455.827 493.37 417.345C493.37 417.345 463.599 353.306 466.553 333.59C469.233 315.91 475.414 313.301 471.871 281.687C468.328 250.074 457.879 256.538 443.045 236.454C428.21 216.37 441.188 178.961 430.46 179.431C419.732 179.901 426.877 206.404 410.32 210.204C393.762 214.005 384.04 196.618 377.079 175.115C370.118 153.611 393.036 139.586 391.372 104.962C389.708 70.3381 366.175 53.5873 360.046 48.9128C353.916 44.2383 365.693 30.4472 364.19 19.598C362.686 8.74873 356.344 19.9867 356.344 19.9867C322.92 61.4828 329.408 106.018 333.691 134.581C337.058 155.248 345.094 174.876 357.187 191.97C363.577 201.594 384.394 244.228 377.135 256.51C369.877 268.793 359.484 258.383 351.912 248.83C344.339 239.276 348.391 213.255 344.765 199.545C341.138 185.836 332.982 180.263 327.889 179.514C322.796 178.765 328.861 196.353 329.779 217.155C330.698 237.957 309.673 248.021 311.779 270.748C313.885 293.474 336.662 315.131 350.392 334.364C353.082 338.429 354.918 342.999 355.788 347.796C360.841 371.905 373.472 393.767 391.834 410.188C393.543 416.041 395.905 426.908 389.944 435.576C381.943 447.135 375.167 446.412 368.624 441.501C362.081 436.591 356.165 421.103 349.964 415.698C343.763 410.293 349.23 425.422 353.491 443.133C357.751 460.844 359.069 512.524 386.52 535.411C413.97 558.299 415.489 554.318 431.35 569.206C446.467 583.34 467.222 632.915 526.137 659.874C530.582 663.607 535.202 667.444 539.399 670.764C553.737 682.117 568.853 698.06 580.433 705.748C592.012 713.436 606.173 719.041 619.406 709.598C632.639 700.155 633.122 711.74 651.516 718.497C662.472 722.495 680.511 724.274 693.34 725.074C698.549 726.926 703.628 728.657 708.433 730.133C722.625 737.125 738.871 744.921 741.757 745.447C746.949 746.348 752.147 742.338 758.418 737.308C764.689 732.279 763.792 731.108 771.504 729.508C779.215 727.907 782.427 731.121 785.586 728.613C788.745 726.105 781.669 725.283 774.92 721.658C773.419 720.716 772.131 719.47 771.141 718.001C770.151 716.531 769.479 714.871 769.169 713.126C768.859 711.381 768.918 709.591 769.342 707.87C769.766 706.149 770.545 704.536 771.63 703.135C776.145 698.305 822.158 709.31 822.904 710.641C823.651 711.973 827.413 716.727 820.63 719.528C817.26 720.857 813.974 722.389 810.789 724.116C810.789 724.116 818.227 734.298 826.402 734.88C831.888 735.273 842.968 729.489 849.638 725.678C851.36 725.63 853.062 725.293 854.673 724.682C879.94 715.115 934.357 698.767 956.076 675.535C990.274 638.956 992.282 598.08 964.554 556.739C959.908 550.284 942.979 531.44 939.384 528.863ZM400.236 473.589C405.644 481.844 412.429 503.696 410.543 514.846C408.657 525.996 402.817 516.463 391.025 508.033C379.233 499.604 378.273 492.853 375.92 479.912C373.566 466.971 381.757 462.922 383.02 460.602C383.065 460.554 394.812 465.32 400.236 473.589ZM414.716 312.583C410.34 300.256 399.379 233.557 416.061 232.076C432.743 230.594 452.415 309.631 449.157 324.507L449.079 324.947C448.634 326.895 447.693 328.696 446.347 330.172C445 331.649 443.294 332.752 441.394 333.373C439.495 333.995 437.467 334.113 435.507 333.718C433.548 333.322 431.725 332.426 430.215 331.117C423.729 325.566 416.836 318.609 414.716 312.583ZM583.478 564.524C572.958 558.672 565.236 542.824 569.61 544.439C579.7 548.046 590.031 550.94 600.527 553.098L626.742 568.012C626.742 568.012 594.122 570.373 583.51 564.555L583.478 564.524Z" fill="white"/>
<g opacity="0.3">
<path d="M452.62 352.818C452.62 352.818 452.879 354.477 453.416 357.453C453.294 355.887 453.028 354.335 452.62 352.818Z" fill="white"/>
<path d="M794.262 559.646C780.369 574.507 771.865 533.548 751.273 535.598C687.492 541.985 704.884 550.007 704.884 550.007C710.467 551.006 715.995 552.288 721.448 553.847C730.47 556.429 757.797 586.291 757.797 586.291C757.797 586.291 747.517 595.447 725.527 599.992C703.537 604.536 678.092 577.761 678.092 577.761C678.092 577.761 629.775 599.299 598.298 590.659C566.82 582.019 554.266 558.334 550.778 537.182C547.291 516.03 582.509 526.447 582.509 526.447C582.509 526.447 567.817 521.281 517.683 486.962C474.044 457.025 457.1 377.492 453.401 357.469C453.986 363.133 452.9 368.845 450.277 373.899C447.654 378.953 443.608 383.128 438.639 385.909C418.275 398.43 389.257 350.271 389.257 350.271C389.257 350.271 405.458 387.806 407.896 411.597C410.334 435.389 414.024 446.804 414.024 446.804C414.024 446.804 441.84 464.362 455.674 479.708C469.507 495.054 467.725 520.875 464.189 536.759C460.654 552.643 438.527 546.167 438.527 546.167C442.955 549.99 447.632 553.516 452.526 556.721C459.953 561.461 466.134 564.434 489.448 589.519C512.762 614.604 562.759 659.203 582.705 670.851C602.651 682.499 614.152 652.64 637.333 656.601C660.513 660.561 683.299 698.217 712.048 699.9C740.796 701.584 767.041 672.867 770.292 674.036C795.898 683.341 817.98 687.572 837.111 688.441C839.797 688.538 847.246 693.963 847.239 696.069C847.232 698.174 841.257 720.346 837.014 720.302C832.771 720.258 845.342 724.045 854.196 716.543C863.05 709.041 869.983 703.272 870.511 705.999C870.511 705.999 913.631 699.183 919.699 690.434C934.495 682.935 954.947 672.095 965.067 659.561C989.726 612.013 977.983 593.431 966.809 569.076C955.636 544.72 921.465 528.343 921.465 528.343C921.465 528.343 851.234 499.192 794.262 559.646Z" fill="white"/>
</g>
<path d="M329.639 392.805C326.873 387.521 322.394 383.334 316.936 380.929C305.455 375.245 296.508 365.482 291.845 353.549C287.692 341.339 291.577 340.927 291.577 340.927C291.577 340.927 300.697 352.472 311.927 356.725C323.157 360.978 330.329 366.507 332.902 378.536C335.474 390.566 329.639 392.805 329.639 392.805Z" fill="white"/>
<path d="M500.633 25.6262C500.633 25.6262 470.876 38.4785 468.422 60.08C465.968 81.6816 476.729 76.1736 472.589 94.9315C468.448 113.689 477.709 111.787 477.709 111.787C477.709 111.787 501.688 101.016 504.788 79.5957C507.887 58.1752 497.117 55.528 498.845 40.6093L500.633 25.6262Z" fill="white"/>
<path d="M423.571 112.798C423.571 112.798 415.936 122.224 417.006 130.406C418.077 138.587 419.066 148.534 425.476 151.328C431.885 154.122 436.797 151.352 435.256 145.385C433.714 139.418 423.571 112.798 423.571 112.798Z" fill="white"/>
<path opacity="0.3" d="M384.427 341.14C384.427 341.14 371.052 330.597 362.252 322.582C353.453 314.566 362.96 311.175 359.063 295.463C355.167 279.751 338.229 257.882 338.229 257.882C338.229 257.882 374.163 282.184 375.795 286.183C375.795 286.183 368.888 295.959 369.534 304.95C370.179 313.941 382.131 327.589 385.331 333.235C388.53 338.882 384.427 341.14 384.427 341.14Z" fill="white"/>
<path opacity="0.3" d="M352.561 133.728C352.561 133.728 344.147 131.594 341.543 124.181C338.939 116.768 341.22 73.7939 341.22 73.7939L350.453 50.6856L353.938 80.5546C353.938 80.5546 367.8 79.636 370.7 91.6701C373.6 103.704 352.561 133.728 352.561 133.728Z" fill="white"/>
<path d="M434.774 -105.762C434.774 -105.762 402.448 -70.5407 407.707 -57.4476C412.966 -44.3545 414.453 -51.141 415.975 -40.6666C417.497 -30.1922 404.799 15.0819 407.309 26.1779C409.818 37.274 462.015 -7.52021 462.158 -11.6105C462.301 -15.7008 458.276 -10.2012 460.697 -21.2137C463.117 -32.2261 480.464 -52.8786 481.822 -65.3679C483.179 -77.8571 483.314 -66.4161 468.027 -59.1653C452.74 -51.9146 442.081 -60.9744 437.428 -70.9068C432.774 -80.8392 440.297 -85.2714 439.554 -95.7719C438.811 -106.273 434.774 -105.762 434.774 -105.762Z" fill="white"/>
<path d="M303.617 220.967C302.327 220.153 300.819 220.313 300.479 221.322C300.426 222.025 300.575 222.729 300.908 223.35C301.241 223.972 301.744 224.485 302.359 224.83C303.665 225.628 305.14 225.438 305.464 224.414C305.514 223.723 305.366 223.033 305.039 222.423C304.713 221.813 304.219 221.308 303.617 220.967Z" fill="white"/>
<path d="M519.037 5.35916C517.747 4.54494 516.24 4.7048 515.899 5.71423C515.849 6.41684 515.999 7.11934 516.332 7.7402C516.664 8.36105 517.166 8.87483 517.779 9.22188C519.085 10.02 520.56 9.83004 520.884 8.80556C520.934 8.11524 520.787 7.42498 520.46 6.81494C520.133 6.20491 519.64 5.70011 519.037 5.35916Z" fill="white"/>
<path d="M465.759 223.776C464.468 222.962 462.976 223.106 462.621 224.131C462.572 224.833 462.725 225.534 463.061 226.153C463.396 226.771 463.901 227.281 464.516 227.623C465.806 228.437 467.281 228.247 467.606 227.223C467.663 226.531 467.52 225.838 467.192 225.226C466.864 224.615 466.367 224.111 465.759 223.776Z" fill="white"/>
<path d="M307.842 168.556L307.97 168.676C308.029 168.772 308.112 168.85 308.212 168.902C308.304 168.951 308.407 168.974 308.51 168.971C308.614 168.967 308.715 168.937 308.804 168.882C308.9 168.824 308.978 168.74 309.03 168.641L309.18 168.48C309.25 168.361 309.283 168.224 309.276 168.087L309.237 167.87C309.167 167.745 309.06 167.646 308.932 167.584L308.803 167.463C308.745 167.367 308.661 167.288 308.561 167.237C308.463 167.193 308.355 167.175 308.248 167.186C308.141 167.189 308.035 167.213 307.938 167.258C307.852 167.317 307.78 167.394 307.728 167.484L307.577 167.645C307.507 167.77 307.469 167.911 307.466 168.054L307.505 168.271C307.583 168.389 307.687 168.487 307.81 168.557L307.842 168.556Z" fill="white"/>
<path d="M393.871 61.9802L394 62.1006C394.066 62.1904 394.148 62.267 394.242 62.3264C394.342 62.3616 394.448 62.3791 394.555 62.3782L394.865 62.3054C394.956 62.2412 395.032 62.159 395.09 62.0639L395.241 61.9029C395.305 61.782 395.338 61.6468 395.337 61.5098L395.298 61.2928C395.22 61.1749 395.115 61.0769 394.992 61.0069L394.864 60.8864C394.798 60.7966 394.716 60.72 394.622 60.6607C394.521 60.6254 394.415 60.6079 394.309 60.6088C394.204 60.6086 394.102 60.6391 394.015 60.6967C393.923 60.7481 393.85 60.8269 393.805 60.9221L393.654 61.0831C393.579 61.2064 393.541 61.3482 393.543 61.4922L393.581 61.7093C393.628 61.8483 393.707 61.9741 393.812 62.0757L393.871 61.9802Z" fill="white"/>
</g>
<g opacity="0.2">
<path d="M82.1333 -15.8857C78.7615 -1.21303 97.3648 18.8087 97.3648 18.8087C97.3648 18.8087 76.2801 17.1215 66.5616 43.4391C63.7438 51.0393 62.8554 59.2199 63.976 67.2478C65.0967 75.2757 68.1913 82.9003 72.9827 89.4384C72.9827 89.4384 61.1872 84.762 50.0067 97.4238C38.8262 110.086 44.0479 115.743 46.6034 117.743L56.8266 125.76C56.8266 125.76 46.3288 144.579 53.3191 154.738C46.1572 177.99 36.2439 229.139 87.8495 228.621C87.8495 228.621 79.7992 264.791 101.807 266.213C101.807 266.213 77.1992 352.498 145.439 336.666C145.439 336.666 148.556 364.959 167.758 369.328C167.758 369.328 172.286 419.859 204.385 422.5C204.385 422.5 215.634 458.025 237.844 448.353C237.844 448.353 241.076 471.614 256.733 468.904L265.574 481.188C265.574 481.188 252.504 492.98 266.291 492.372C280.078 491.764 296.675 487.91 273.311 461.238C273.311 461.238 279.36 433.101 267.814 413.722C256.267 394.342 235.01 398.925 235.01 398.925C235.01 398.925 235.774 358.59 198.973 362.923C198.973 362.923 206.581 348.942 199.808 319.557C193.036 290.172 172.491 307.939 172.491 307.939C172.491 307.939 182.058 287.946 163.227 267.411C163.227 267.411 191.999 251.824 178.875 218.289C167.563 189.403 141.247 198.377 134.166 201.418C136.961 199.519 141.293 193.478 133.693 175.008C127.912 160.907 119.231 167.926 119.231 167.926L109.434 164.059C116.425 159.825 131.696 147.936 124.008 127.9C114.181 102.164 107.377 105.549 107.377 105.549C107.377 105.549 124.916 94.2327 120.499 77.5669C120.499 77.5669 151.173 69.9337 144.23 45.5846C144.23 45.5846 167.888 46.7096 164.208 21.7679L97.1662 -21.7264C97.1662 -21.7264 85.4135 -30.517 82.1333 -15.8857Z" fill="#EBEBEB"/>
<g opacity="0.2">
<path d="M178.856 218.29C174.137 206.236 166.869 200.799 159.302 198.759C158.455 207.419 154.493 215.478 148.152 221.438C159.821 231.709 158.879 252.742 146.387 261.948C153.747 268.413 159.069 276.878 161.705 286.313C164.341 295.748 164.178 305.746 161.236 315.09C165.741 312.123 171.224 311.03 176.522 312.042C179.145 312.6 181.534 313.947 183.37 315.9C185.207 317.853 186.403 320.321 186.799 322.972C187.258 328.279 182.697 333.789 177.373 333.444C182.594 340.165 186.378 347.888 188.487 356.134C190.597 364.379 190.988 372.97 189.636 381.373C193.762 378.839 198.555 377.608 203.391 377.84C208.227 378.073 212.881 379.758 216.744 382.677C220.607 385.595 223.5 389.61 225.046 394.198C226.592 398.786 226.718 403.734 225.409 408.395C231.596 407.079 238.035 407.616 243.919 409.939C249.803 412.262 254.872 416.268 258.492 421.456C262.111 426.644 264.122 432.784 264.271 439.108C264.42 445.433 262.701 451.661 259.33 457.014C268.854 462.794 277.009 470.572 283.233 479.811L283.119 475.106C280.482 470.047 277.169 465.369 273.272 461.203C273.272 461.203 279.321 433.066 267.775 413.686C256.228 394.306 235.01 398.925 235.01 398.925C235.01 398.925 235.774 358.59 198.973 362.923C198.973 362.923 206.581 348.942 199.808 319.557C193.036 290.172 172.491 307.939 172.491 307.939C172.491 307.939 182.058 287.946 163.227 267.411C163.208 267.412 191.98 251.825 178.856 218.29Z" fill="black"/>
</g>
<path d="M156.254 25.7825C158.62 25.5847 184.203 19.0731 193.933 -0.609156C203.664 -20.2914 196.396 -41.4111 196.396 -41.4111C196.396 -41.4111 219.71 -32.8313 212.989 -62.312L181.747 -109.535C181.747 -109.535 162.945 -129.398 156.329 -107.741C156.329 -107.741 122.213 -108.648 119.122 -90.1555C116.03 -71.6632 124.859 -50.3506 124.859 -50.3506C124.859 -50.3506 102.387 -63.5659 97.7007 -50.7232C93.0144 -37.8805 98.0676 -17.3921 98.0676 -17.3921L156.254 25.7825Z" fill="#EBEBEB"/>
<path opacity="0.1" d="M811.157 38.8119C811.157 38.8119 808.273 34.8641 800.794 34.4088C800.265 34.3567 799.731 34.3803 799.208 34.4787L801.847 61.2608C816.617 57.0766 821.139 64.6719 824.734 38.9608C824.753 39.3899 834.008 46.2158 834.083 46.6425C835.318 53.4481 831.22 61.4049 824.412 62.5836C826.827 64.2633 828.749 66.5593 829.976 69.233C831.204 71.9067 831.693 74.8605 831.393 77.7873C831.093 80.714 830.014 83.5069 828.269 85.8756C826.524 88.2444 824.176 90.1025 821.47 91.2567C824.769 92.7223 827.454 95.2906 829.065 98.5205C830.676 101.75 831.112 105.44 830.298 108.957C829.485 112.473 827.473 115.597 824.607 117.791C821.741 119.986 818.201 121.114 814.594 120.982C815.991 123.057 816.859 125.443 817.121 127.93C817.383 130.418 817.032 132.933 816.098 135.253C815.164 137.574 813.675 139.631 811.762 141.243C809.85 142.856 807.571 143.975 805.126 144.503C806.012 147.701 806.292 151.036 805.952 154.336C805.766 155.983 805.211 157.566 804.327 158.967C803.444 160.369 802.256 161.553 800.851 162.431C799.31 163.255 797.534 163.524 795.819 163.195C792.892 167.623 789.855 178.86 800.643 181.88C814.496 185.755 809.436 162.557 809.436 162.557L810.401 150.962C814.641 148.757 815.48 141.504 815.48 141.504C824.546 146.17 825.551 135.06 825.551 135.06C825.551 135.06 836.449 140.58 838.375 123.634C840.301 106.689 830.518 91.269 830.518 91.269C848.46 90.7955 838.913 72.6736 838.913 72.6736C858.787 61.7408 837.055 44.9413 837.055 44.9413C837.055 44.9413 836.451 29.1354 823.08 24.7528C809.708 20.3703 811.157 38.8119 811.157 38.8119Z" fill="black"/>
<g opacity="0.1">
<path d="M184.866 -54.0623C186.998 -49.1368 188.483 -43.9559 189.284 -38.6489C189.689 -36.0354 189.565 -33.3673 188.92 -30.8025C188.276 -28.2376 187.123 -25.828 185.531 -23.7164C183.772 -21.619 181.416 -20.1074 178.776 -19.3832C176.136 -18.659 173.339 -18.7565 170.756 -19.6629C168.772 -13.483 165.042 -8.00973 160.015 -3.90385C154.988 0.202019 148.88 2.76482 142.429 3.47506C147.623 4.41509 152.472 6.72266 156.478 10.1601C160.483 13.5976 163.5 18.0407 165.218 23.0318C174.222 19.5318 187.511 12.2913 193.931 -0.665228C203.662 -20.3289 196.394 -41.4672 196.394 -41.4672C196.394 -41.4672 219.71 -32.8314 212.989 -62.3121C204.769 -45.2573 184.866 -54.0623 184.866 -54.0623Z" fill="black"/>
</g>
</g>
<g opacity="0.2">
<path d="M1176.27 -130.78C1190.51 -108.6 1224.29 -86.8968 1270.24 -80.1599C1309.15 -74.4582 1329.51 -60.6427 1344.39 -57.1278C1356.76 -54.1979 1386.21 -40.5504 1395.75 -36.0485C1397.62 -31.4336 1401.2 -13.5362 1411.81 -9.99844C1423.5 -6.12179 1441.36 -5.42885 1455.84 15.3522C1469.92 35.5404 1480.62 55.7024 1493.19 95.7074C1493.19 95.7074 1496.76 155.437 1488.31 170.06C1480.7 183.164 1475.02 183.3 1467.99 209.321C1460.96 235.341 1471.21 233.492 1476.66 253.933C1482.11 274.374 1460.26 299.83 1468.86 302.792C1477.46 305.755 1480.07 282.644 1494.3 284.793C1508.53 286.942 1510.79 303.668 1509.6 322.781C1508.4 341.894 1485.98 345.829 1476.54 373.639C1467.09 401.448 1480.43 421.964 1483.81 427.554C1487.19 433.143 1473.62 440.355 1471.44 449.374C1469.25 458.393 1477.74 451.505 1477.74 451.505C1516.98 429.181 1525.71 392.059 1531.21 368.213C1534.97 350.876 1534.74 332.908 1530.52 315.675C1528.47 306.103 1525.31 266.028 1534.84 258.602C1544.38 251.176 1549.34 262.61 1552.34 272.494C1555.34 282.377 1544.06 301.63 1542.66 313.564C1541.26 325.497 1545.96 332.424 1549.74 334.597C1553.52 336.769 1554.21 321.021 1559.95 304.338C1565.69 287.656 1585.39 286.255 1590.79 267.686C1596.19 249.117 1584.96 224.969 1580.12 205.542C1579.26 201.502 1579.23 197.33 1580.04 193.278C1583.54 172.703 1580.38 151.546 1571.01 132.896C1571.48 127.752 1572.99 118.452 1580.39 113.472C1590.28 106.846 1595.4 109.522 1599.03 115.425C1602.66 121.329 1602.52 135.375 1605.72 141.563C1608.93 147.75 1609.32 134.126 1611.47 118.841C1613.61 103.556 1628.63 62.4097 1614.11 35.8391C1599.58 9.26849 1597.14 11.9343 1589.27 -4.72957C1581.74 -20.5678 1580.79 -66.0945 1542.72 -105.651C1540.38 -109.975 1537.93 -114.434 1535.65 -118.356C1527.88 -131.76 1520.91 -149.024 1514.18 -158.682C1507.44 -168.34 1498.02 -177.158 1484.65 -173.826C1471.29 -170.494 1474.5 -179.777 1462.11 -190.818C1454.71 -197.373 1441.04 -204.38 1431.18 -208.997C1427.65 -212.075 1424.18 -215.018 1420.85 -217.675C1411.84 -227.595 1401.46 -238.788 1399.34 -240.1C1395.53 -242.424 1390.19 -240.877 1383.68 -238.861C1377.18 -236.845 1377.52 -235.644 1370.94 -236.778C1364.37 -237.913 1362.84 -241.444 1359.57 -240.449C1356.3 -239.453 1361.62 -236.607 1365.81 -231.653C1366.7 -230.444 1367.33 -229.062 1367.65 -227.595C1367.98 -226.129 1367.99 -224.612 1367.69 -223.14C1367.4 -221.668 1366.79 -220.275 1365.93 -219.05C1365.06 -217.826 1363.94 -216.797 1362.65 -216.029C1357.59 -213.625 1324.74 -236.596 1324.56 -237.877C1324.39 -239.159 1322.9 -244.075 1329.12 -244.176C1332.19 -244.176 1335.25 -244.363 1338.3 -244.735C1338.3 -244.735 1335.6 -255.072 1329.34 -258.071C1325.14 -260.085 1314.61 -258.968 1308.16 -258.037C1306.79 -258.534 1305.35 -258.797 1303.89 -258.816C1281 -259.126 1233.02 -263.147 1208.68 -251.582C1170.36 -233.374 1156.08 -201.777 1165.09 -160.574C1166.75 -154.042 1174.23 -133.928 1176.27 -130.78ZM1584.08 80.3092C1582.39 72.1225 1583.83 52.789 1588.78 44.5855C1593.73 36.382 1595.37 45.712 1602.05 56.0201C1608.72 66.3283 1607.38 71.948 1605.22 82.8805C1603.05 93.8129 1595.34 94.4598 1593.62 95.8955C1593.57 95.9195 1585.79 88.5128 1584.08 80.3092ZM1522.64 202.726C1522.26 213.802 1510.18 269.784 1496.57 265.769C1482.96 261.753 1492.01 193.339 1499.2 182.625L1499.4 182.303C1500.35 180.905 1501.66 179.778 1503.18 179.033C1504.7 178.287 1506.38 177.948 1508.07 178.048C1509.76 178.149 1511.4 178.685 1512.82 179.606C1514.24 180.526 1515.4 181.799 1516.19 183.3C1519.57 189.691 1522.84 197.317 1522.64 202.726ZM1467.9 -48.3067C1474.37 -40.425 1475.53 -25.5331 1472.59 -28.1651C1465.75 -34.1438 1458.51 -39.6346 1450.91 -44.5967L1434.88 -64.4984C1434.88 -64.4984 1461.32 -56.2238 1467.88 -48.3404L1467.9 -48.3067Z" fill="white"/>
<g opacity="0.3">
<path d="M1505.27 159.233C1505.27 159.233 1505.58 157.844 1506.08 155.332C1505.69 156.604 1505.42 157.91 1505.27 159.233Z" fill="white"/>
<path d="M1300.23 -109.954C1315.8 -117.352 1309.77 -82.423 1326.64 -77.6402C1378.9 -62.8579 1367.69 -74.5854 1367.69 -74.5854C1363.6 -77.1074 1359.64 -79.8355 1355.82 -82.7592C1349.51 -87.5971 1337.25 -119.627 1337.25 -119.627C1337.25 -119.627 1348.2 -123.65 1366.94 -120.4C1385.69 -117.15 1397.43 -88.1381 1397.43 -88.1381C1397.43 -88.1381 1442.21 -90.1036 1464.33 -73.5126C1486.46 -56.9216 1489 -34.3507 1485.18 -16.5937C1481.35 1.16328 1456.83 -17.9902 1456.83 -17.9902C1456.83 -17.9902 1466.8 -9.35315 1495.66 33.2759C1520.76 70.4334 1509.4 138.391 1506.1 155.324C1507.4 150.677 1510.03 146.512 1513.66 143.343C1517.3 140.175 1521.79 138.14 1526.57 137.492C1546.51 133.95 1554.42 180.928 1554.42 180.928C1554.42 180.928 1553.31 146.307 1558.78 126.795C1564.26 107.284 1564.89 97.1394 1564.89 97.1394C1564.89 97.1394 1548.42 74.6562 1542.29 58.2611C1536.15 41.8661 1545.58 22.0665 1553.3 10.6443C1561.02 -0.777941 1576.45 11.2013 1576.45 11.2013C1574.15 6.81172 1571.56 2.57954 1568.7 -1.46746C1564.31 -7.51121 1560.37 -11.7754 1549.78 -38.793C1539.2 -65.8107 1513.65 -116.501 1501.54 -131.88C1489.44 -147.259 1471.09 -127.296 1454.05 -137.62C1437.01 -147.944 1430.75 -184.707 1408.61 -194.966C1386.47 -205.226 1356.86 -190.744 1354.66 -192.676C1337.37 -207.967 1321.28 -218.163 1306.47 -224.792C1304.38 -225.703 1300.2 -232.294 1300.86 -233.951C1301.51 -235.609 1313.11 -251.23 1316.44 -249.877C1319.78 -248.523 1311.04 -255.415 1301.73 -252.252C1292.42 -249.09 1285.17 -246.696 1285.6 -249.01C1285.6 -249.01 1249.49 -257.035 1241.99 -252.024C1227.99 -250.71 1208.5 -248.52 1196.63 -241.784C1162.42 -211.966 1165.9 -193.669 1167.14 -170.999C1168.38 -148.329 1190.23 -124.802 1190.23 -124.802C1190.23 -124.802 1236.53 -80.0017 1300.23 -109.954Z" fill="white"/>
</g>
<path d="M1365.76 402.228C1365.76 402.228 1393.21 401.343 1401.85 385.077C1410.5 368.812 1400.31 369.81 1409.4 356.311C1418.49 342.811 1410.6 341.433 1410.6 341.433C1410.6 341.433 1388.35 342.473 1379.25 358.395C1370.15 374.317 1377.82 379.75 1371.82 390.973L1365.76 402.228Z" fill="white"/>
<path d="M1453.59 357.457C1453.59 357.457 1462.54 352.4 1464.23 345.618C1465.93 338.836 1468.24 330.688 1464.06 326.494C1459.87 322.3 1455.14 322.957 1454.5 328.14C1453.86 333.322 1453.59 357.457 1453.59 357.457Z" fill="white"/>
<path opacity="0.3" d="M1555.39 189.626C1555.39 189.626 1562.66 202.093 1567.11 211.145C1571.55 220.197 1563 219.917 1561.19 233.513C1559.38 247.108 1565.94 269.61 1565.94 269.61C1565.94 269.61 1545.16 239.288 1545.12 235.629C1545.12 235.629 1553.6 230.069 1555.89 222.781C1558.17 215.493 1552.99 201.021 1552.22 195.577C1551.46 190.132 1555.39 189.626 1555.39 189.626Z" fill="white"/>
<path opacity="0.3" d="M1516.07 363.023C1516.07 363.023 1522.04 367.319 1521.79 373.971C1521.53 380.624 1506.38 413.79 1506.38 413.79L1491.93 429.137L1498.46 404.509C1498.46 404.509 1487.25 400.926 1488.7 390.539C1490.15 380.152 1516.07 363.023 1516.07 363.023Z" fill="white"/>
<path opacity="0.3" d="M1508.63 -40.4718C1508.63 -40.4718 1519.48 -20.5489 1522.75 -11.2697C1526.02 -1.99056 1517.64 7.96503 1517.64 7.96503C1517.64 7.96503 1526.32 34.0505 1526.3 37.2829C1526.29 40.5152 1523.46 83.2512 1523.46 83.2512C1523.46 83.2512 1521.47 45.7811 1518.59 37.1614C1515.72 28.5418 1504.04 1.79457 1504.04 1.79457C1504.04 1.79457 1518.92 -13.3348 1508.63 -40.4718Z" fill="white"/>
<path d="M1581.75 309.462C1582.52 310.505 1583.76 310.847 1584.34 310.158C1584.6 309.62 1584.7 309.019 1584.63 308.426C1584.56 307.833 1584.32 307.271 1583.95 306.808C1583.16 305.774 1581.94 305.465 1581.37 306.172C1581.11 306.701 1581.02 307.29 1581.08 307.873C1581.15 308.455 1581.38 309.007 1581.75 309.462Z" fill="white"/>
<path d="M1454.82 256.869C1455.58 257.912 1456.8 258.262 1457.4 257.564C1457.66 257.026 1457.75 256.426 1457.68 255.834C1457.61 255.243 1457.37 254.684 1456.99 254.223C1456.23 253.18 1455 252.872 1454.43 253.579C1454.17 254.106 1454.07 254.697 1454.14 255.281C1454.2 255.865 1454.44 256.416 1454.82 256.869Z" fill="white"/>
<path d="M1562.14 349.464L1562.07 349.329C1562.06 349.235 1562.02 349.148 1561.95 349.076C1561.9 349.009 1561.82 348.958 1561.74 348.929C1561.66 348.899 1561.57 348.892 1561.48 348.908C1561.39 348.924 1561.3 348.966 1561.23 349.028L1561.06 349.108C1560.97 349.18 1560.9 349.277 1560.86 349.388L1560.83 349.571C1560.84 349.691 1560.9 349.803 1560.98 349.892L1561.04 350.026C1561.06 350.12 1561.1 350.208 1561.16 350.279C1561.23 350.345 1561.3 350.393 1561.39 350.418C1561.48 350.449 1561.57 350.462 1561.66 350.457C1561.75 350.437 1561.83 350.399 1561.9 350.344L1562.06 350.264C1562.16 350.187 1562.23 350.088 1562.28 349.976L1562.32 349.793C1562.29 349.676 1562.24 349.566 1562.16 349.473L1562.14 349.464Z" fill="white"/>
<path d="M1421.04 3.62693C1422.63 8.4168 1425.8 12.5221 1430.04 15.2683C1438.87 21.5936 1445.02 30.983 1447.29 41.6011C1449.11 52.3547 1445.8 52.1881 1445.8 52.1881C1445.8 52.1881 1439.71 41.357 1430.94 36.2191C1422.17 31.0813 1416.9 25.5457 1416.39 15.1192C1415.88 4.69271 1421.04 3.62693 1421.04 3.62693Z" fill="white"/>
<path d="M1280.89 -58.1946C1280.89 -58.1946 1296.63 -61.6455 1313.99 -48.4916C1331.34 -35.3378 1348.83 -6.78634 1351.9 -3.5088C1354.97 -0.231263 1367.87 12.5326 1367.87 12.5326C1367.87 12.5326 1332.9 6.05794 1317.81 -8.46206C1302.72 -22.9821 1280.89 -58.1946 1280.89 -58.1946Z" fill="white"/>
</g>
</g>
<defs>
<clipPath id="clip0_18_2">
<rect width="1584" height="396" fill="white"/>
</clipPath>
</defs>
</svg>
